P3 10 90 255 
0 0 18 0 0 162 202 0 0 44 0 0 0 0 34 0 0 198 144 0 0 0 0 122 206 0 0 0 0 98 
110 0 0 0 0 188 228 0 0 0 0 26 230 0 0 0 0 202 0 0 144 176 0 0 198 0 0 0 0 40 
0 0 170 0 0 132 0 0 128 0 0 44 210 0 0 28 0 0 70 0 0 0 0 130 0 0 144 132 0 0 
64 0 0 106 0 0 116 0 0 134 0 0 46 0 0 0 0 110 188 0 0 0 0 240 158 0 0 54 0 0 
0 0 248 0 0 86 0 0 78 16 0 0 74 0 0 0 0 46 124 0 0 214 0 0 0 0 232 0 0 160 
246 0 0 0 0 200 0 0 42 0 0 146 6 0 0 10 0 0 94 0 0 230 0 0 0 0 120 216 0 0 
34 0 0 128 0 0 86 0 0 0 0 198 0 0 234 118 0 0 232 0 0 0 0 104 0 0 202 70 0 0 
124 0 0 0 0 8 58 0 0 0 0 236 60 0 0 184 0 0 214 0 0 0 0 180 0 0 112 0 0 122 
0 0 192 0 0 70 0 0 210 150 0 0 210 0 0 0 0 154 6 0 0 192 0 0 144 0 0 0 0 52 
52 0 0 240 0 0 190 0 0 80 0 0 0 0 14 120 0 0 0 0 124 0 0 92 0 0 158 54 0 0 
212 0 0 164 0 0 94 0 0 168 0 0 28 0 0 0 0 232 0 0 38 64 0 0 0 0 200 254 0 0 
0 0 174 242 0 0 236 0 0 0 0 88 0 0 180 134 0 0 0 0 162 0 0 58 0 0 34 44 0 0 
228 0 0 0 0 250 124 0 0 0 0 78 238 0 0 186 0 0 136 0 0 0 0 62 0 0 42 0 0 88 
0 0 178 0 0 64 124 0 0 56 0 0 0 0 172 0 0 210 210 0 0 0 0 56 0 0 166 0 0 146 
0 0 146 100 0 0 0 0 90 0 0 228 218 0 0 0 0 60 0 0 44 170 0 0 106 0 0 0 0 200 
0 0 232 0 0 230 0 0 172 0 0 182 88 0 0 0 0 236 208 0 0 0 0 218 236 0 0 218 0 0 
0 0 190 92 0 0 146 0 0 0 0 154 236 0 0 166 0 0 138 0 0 0 0 46 18 0 0 0 0 168 
0 0 206 60 0 0 246 0 0 218 0 0 0 0 10 0 0 2 0 0 110 0 0 42 220 0 0 0 0 16 
0 0 60 98 0 0 0 0 96 0 0 70 104 0 0 18 0 0 0 0 182 0 0 32 218 0 0 0 0 130 
0 0 40 172 0 0 112 0 0 4 0 0 152 0 0 0 0 46 166 0 0 180 0 0 0 0 214 0 0 84 
172 0 0 0 0 64 130 0 0 154 0 0 0 0 78 0 0 228 0 0 162 0 0 14 0 0 180 0 0 192 
0 0 86 120 0 0 4 0 0 30 0 0 0 0 60 160 0 0 0 0 68 0 0 10 0 0 56 216 0 0 
120 0 0 0 0 158 0 0 76 0 0 114 0 0 12 0 0 14 8 0 0 0 0 90 0 0 72 66 0 0 
0 0 160 0 0 176 0 0 176 116 0 0 208 0 0 0 0 212 0 0 228 0 0 94 52 0 0 0 0 40 
0 0 58 0 0 142 232 0 0 0 0 140 138 0 0 150 0 0 0 0 44 132 0 0 0 0 52 54 0 0 
52 0 0 140 0 0 170 0 0 0 0 200 0 0 142 206 0 0 116 0 0 210 0 0 0 0 136 0 0 172 
34 0 0 228 0 0 0 0 220 180 0 0 32 0 0 0 0 42 38 0 0 0 0 232 0 0 160 170 0 0 
134 0 0 0 0 6 0 0 48 136 0 0 0 0 108 0 0 10 0 0 30 28 0 0 0 0 14 0 0 214 
64 0 0 0 0 182 0 0 136 52 0 0 0 0 160 14 0 0 236 0 0 0 0 158 136 0 0 0 0 174 
122 0 0 172 0 0 34 0 0 216 0 0 0 0 228 152 0 0 252 0 0 212 0 0 42 0 0 220 0 0 
0 0 52 0 0 52 0 0 196 172 0 0 174 0 0 0 0 190 10 0 0 150 0 0 134 0 0 0 0 208 
0 0 54 0 0 94 0 0 170 130 0 0 0 0 240 168 0 0 198 0 0 0 0 70 0 0 164 0 0 64 
192 0 0 8 0 0 0 0 248 162 0 0 0 0 118 142 0 0 0 0 134 108 0 0 192 0 0 92 0 0 
0 0 130 0 0 208 52 0 0 208 0 0 0 0 170 0 0 162 0 0 126 0 0 6 112 0 0 0 0 2 
68 0 0 192 0 0 0 0 234 0 0 22 0 0 56 98 0 0 254 0 0 0 0 218 0 0 232 0 0 72 
0 0 8 0 0 190 0 0 162 112 0 0 88 0 0 62 0 0 138 0 0 114 0 0 0 0 166 92 0 0 
0 0 216 204 0 0 0 0 92 0 0 206 10 0 0 60 0 0 0 0 238 0 0 16 44 0 0 80 0 0 
216 0 0 0 0 198 0 0 242 148 0 0 0 0 160 0 0 122 0 0 6 0 0 6 212 0 0 0 0 152 
210 0 0 0 0 2 0 0 208 54 0 0 0 0 82 190 0 0 0 0 222 0 0 166 0 0 36 0 0 114 
0 0 170 0 0 54 0 0 18 0 0 156 0 0 22 234 0 0 212 0 0 0 0 248 0 0 212 38 0 0 
188 0 0 34 0 0 0 0 252 90 0 0 0 0 120 134 0 0 56 0 0 0 0 174 0 0 80 0 0 90 
0 0 200 0 0 104 0 0 202 0 0 236 194 0 0 0 0 46 0 0 112 90 0 0 0 0 96 0 0 108 
66 0 0 60 0 0 0 0 114 0 0 128 100 0 0 0 0 80 96 0 0 192 0 0 0 0 90 58 0 0 
84 0 0 0 0 184 0 0 102 0 0 252 0 0 178 0 0 2 104 0 0 102 0 0 0 0 70 216 0 0 
162 0 0 26 0 0 0 0 104 160 0 0 0 0 192 0 0 70 0 0 130 112 0 0 210 0 0 0 0 4 
0 0 250 66 0 0 0 0 220 0 0 118 96 0 0 222 0 0 0 0 32 232 0 0 16 0 0 0 0 64 
80 0 0 0 0 126 202 0 0 40 0 0 200 0 0 0 0 130 0 0 10 0 0 170 0 0 48 0 0 118 
210 0 0 124 0 0 44 0 0 232 0 0 0 0 212 196 0 0 128 0 0 0 0 30 0 0 56 128 0 0 
0 0 4 64 0 0 240 0 0 168 0 0 232 0 0 246 0 0 52 0 0 78 0 0 0 0 110 0 0 202 
232 0 0 34 0 0 0 0 110 0 0 38 0 0 54 0 0 200 2 0 0 56 0 0 0 0 194 0 0 198 
0 0 196 0 0 58 0 0 120 0 0 226 0 0 140 0 0 54 0 0 38 0 0 104 0 0 236 0 0 220 
232 0 0 176 0 0 0 0 150 0 0 218 0 0 58 0 0 82 116 0 0 244 0 0 204 0 0 232 0 0 
64 0 0 0 0 212 0 0 204 234 0 0 0 0 252 194 0 0 0 0 192 210 0 0 0 0 184 244 0 0 
0 0 58 0 0 108 0 0 178 74 0 0 34 0 0 252 0 0 140 0 0 224 0 0 116 0 0 116 0 0 
0 0 210 0 0 226 72 0 0 0 0 200 0 0 6 0 0 222 0 0 184 0 0 188 0 0 24 0 0 146 
0 0 174 0 0 144 0 0 72 202 0 0 230 0 0 108 0 0 0 0 20 16 0 0 0 0 42 20 0 0 
220 0 0 30 0 0 0 0 50 0 0 40 244 0 0 0 0 224 0 0 196 0 0 156 230 0 0 40 0 0 
164 0 0 0 0 170 0 0 116 134 0 0 216 0 0 0 0 208 0 0 44 112 0 0 148 0 0 0 0 66 
202 0 0 236 0 0 0 0 162 92 0 0 210 0 0 0 0 234 30 0 0 0 0 236 0 0 44 70 0 0 
84 0 0 0 0 172 0 0 106 0 0 128 178 0 0 0 0 60 0 0 86 0 0 252 226 0 0 96 0 0 
0 0 102 0 0 178 80 0 0 212 0 0 0 0 50 66 0 0 108 0 0 0 0 130 176 0 0 0 0 82 
0 0 166 132 0 0 0 0 60 160 0 0 0 0 140 0 0 208 0 0 38 220 0 0 0 0 76 222 0 0 
14 0 0 226 0 0 30 0 0 0 0 222 126 0 0 0 0 102 0 0 38 0 0 82 0 0 230 0 0 26 
0 0 174 166 0 0 0 0 148 0 0 164 0 0 252 232 0 0 0 0 106 0 0 30 0 0 224 2 2 2 
50 0 0 0 0 90 0 0 144 192 0 0 0 0 218 52 0 0 174 0 0 0 0 214 118 118 118 154 154 154 
196 0 0 104 0 0 0 0 210 18 0 0 0 0 244 0 0 24 178 0 0 146 146 146 30 30 30 168 168 168 
58 0 0 16 0 0 48 0 0 0 0 66 0 0 136 118 0 0 232 232 232  0 34 0   0 74 0   0 140 0  
0 0 212 0 0 26 8 0 0 0 0 144 0 0 252  0 48 0   0 138 0  100 100 100 100 100 100 96 96 96 
166 166 166 226 226 226 132 132 132 0 0 166 8 8 8  0 80 0   0 166 0  24 24 24 52 52 52 14 14 14 
 0 108 0  82 82 82  0 34 0  18 18 18  0 250 0  114 114 114 174 174 174  0 166 0   0 92 0  144 144 144 
 0 62 0  34 34 34 116 116 116 230 230 230  0 6 0  140 140 140  0 142 0   0 212 0  48 48 48  0 246 0  
 0 112 0  94 94 94 250 250 250 222 222 222  0 240 0  72 72 72 106 106 106  0 38 0  160 160 160 178 178 178 
160 160 160  0 126 0   0 16 0   0 182 0   0 2 0   0 152 0   0 226 0   0 112 0  116 116 116  0 232 0  
 0 32 0  102 102 102  0 20 0  86 86 86 100 100 100  0 152 0   0 104 0  138 138 138 66 66 66 182 182 182 
 0 18 0  96 96 96 40 40 40 108 108 108  0 182 0  20 20 20 160 160 160  0 146 0   0 198 0   0 226 0  
126 126 126 82 82 82  0 148 0   0 184 0  20 20 20  0 154 0   0 190 0   0 18 0  214 214 214 220 220 220 
 0 156 0  90 90 90 2 2 2 2 2 2  0 110 0  190 190 190 182 182 182  0 30 0  222 222 222  0 190 0  
 0 176 0  244 244 244 202 202 202 178 178 178 64 64 64  0 14 0  132 132 132 60 60 60 180 180 180  0 166 0  
 0 200 0   0 14 0   0 36 0   0 166 0  18 18 18 66 66 66  0 158 0   0 30 0   0 222 0   0 202 0  
234 234 234 2 2 2  0 210 0  176 176 176  0 90 0  4 4 4  0 118 0   0 26 0   0 56 0  60 60 60 
 0 50 0  8 8 8  0 232 0   0 24 0   0 134 0   0 102 0   0 180 0  46 46 46  0 34 0  134 134 134 
92 92 92  0 98 0   0 206 0   0 122 0  72 72 72 70 70 70 116 116 116  0 214 0  88 88 88  0 70 0  
 0 52 0   0 106 0   0 20 0  212 212 212  0 48 0   0 178 0  142 142 142  0 120 0   0 168 0   0 100 0  
16 16 16  0 178 0   0 196 0   0 124 0  252 252 252  0 244 0  36 36 36  0 214 0  136 136 136  0 48 0  
114 114 114 106 106 106 150 150 150  0 200 0   0 92 0  92 92 92 220 220 220 50 50 50 92 92 92 66 66 66 
178 178 178 144 144 144  0 190 0  64 64 64  0 2 0   0 60 0  160 160 160  0 192 0   0 146 0  8 8 8 
118 118 118 210 210 210  0 246 0   0 20 0  52 52 52 44 44 44 158 158 158 52 52 52  0 240 0  104 104 104 
2 2 2  0 212 0  220 220 220 204 204 204  0 226 0  188 188 188  0 214 0   0 224 0  58 58 58  0 38 0  
 0 146 0  234 234 234  0 86 0   0 64 0   0 86 0   0 76 0  32 32 32 206 206 206  0 76 0   0 120 0  
128 128 128  0 230 0   0 2 0   0 252 0   0 132 0   0 112 0   0 148 0  158 158 158 46 46 46  0 230 0  
