P3 10 7 255 
234 0 0 28 0 0 0 0 44 0 0 172 6 6 6 0 0 232 0 0 106 18 18 18 0 0 152 156 156 156 
0 0 6 0 0 78 0 0 58 124 124 124  0 18 0  44 44 44 240 240 240 238 238 238 158 158 158 118 118 118 
0 0 126 154 0 0 60 60 60  0 150 0  38 38 38 232 232 232 214 214 214  0 44 0  114 114 114 232 232 232 
0 0 196  0 192 0  196 196 196  0 220 0   0 204 0   0 56 0  156 156 156 182 182 182 190 190 190 136 136 136 
 0 6 0  72 72 72 28 28 28  0 178 0  58 58 58  0 216 0  2 2 2 18 18 18  0 92 0  64 64 64 
 0 184 0   0 16 0  82 82 82 194 194 194 68 68 68 216 216 216 44 44 44 234 234 234  0 174 0  122 122 122 
68 68 68  0 90 0  48 48 48 142 142 142  0 6 0   0 100 0  92 92 92  0 226 0   0 12 0   0 198 0  
